<?xml version="1.0" encoding="iso-8859-1"?>
<!-- Generator: Adobe Illustrator 19.0.0, SVG Export Plug-In . SVG Version: 6.00 Build 0)  -->
<svg version="1.1" id="Layer_1" xmlns="http://www.w3.org/2000/svg" xmlns:xlink="http://www.w3.org/1999/xlink" x="0px" y="0px"
	 viewBox="0 0 512.004 512.004" style="enable-background:new 0 0 512.004 512.004;" xml:space="preserve">
<rect x="244.625" y="223.358" style="fill:#69351D;" width="22.755" height="186.769"/>
<rect x="256" y="223.358" style="fill:#542C19;" width="11.378" height="186.769"/>
<rect x="194.638" y="398.751" style="fill:#69351D;" width="122.724" height="22.755"/>
<rect x="194.638" y="410.138" style="fill:#542C19;" width="122.724" height="11.378"/>
<rect x="11.378" y="348.486" style="fill:#69351D;" width="127.8" height="22.755"/>
<g>
	<path style="fill:#E69824;" d="M22.755,231.487c11.273-15.243,18.246-36.302,18.246-59.562s-6.973-44.32-18.246-59.562H11.378
		v119.126h11.378V231.487z"/>
	<path style="fill:#E69824;" d="M145.316,260.796c-15.243-11.273-36.302-18.246-59.562-18.246s-44.32,6.973-59.562,18.246v11.378
		h119.126v-11.378H145.316z"/>
</g>
<g>
	<rect x="127.8" y="272.176" style="fill:#542C19;" width="22.755" height="151.496"/>
	<rect y="270.217" style="fill:#542C19;" width="22.755" height="153.455"/>
</g>
<g>
	<polygon style="fill:#69351D;" points="22.755,260.796 22.755,106.433 0,106.433 0,283.551 150.56,283.551 150.56,260.796 	"/>
	<rect x="372.814" y="348.486" style="fill:#69351D;" width="127.8" height="22.755"/>
</g>
<g>
	<path style="fill:#E69824;" d="M489.245,231.487c-11.273-15.243-18.246-36.302-18.246-59.562s6.973-44.32,18.246-59.562h11.378
		v119.126h-11.378V231.487z"/>
	<path style="fill:#E69824;" d="M366.684,260.796c15.243-11.273,36.302-18.246,59.562-18.246c23.26,0,44.32,6.973,59.562,18.246
		v11.378H366.684V260.796z"/>
</g>
<g>
	<rect x="361.439" y="272.176" style="fill:#542C19;" width="22.755" height="151.496"/>
	<rect x="489.249" y="270.217" style="fill:#542C19;" width="22.755" height="153.455"/>
</g>
<polygon style="fill:#69351D;" points="489.245,260.796 489.245,106.433 512,106.433 512,283.551 361.44,283.551 361.44,260.796 "/>
<path style="fill:#A0D625;" d="M269.32,141.834c-3.278,0.984-6.705-0.781-6.705-0.781s1.888-3.361,5.166-4.345
	c3.278-0.984,6.705,0.781,6.705,0.781S272.598,140.85,269.32,141.834z"/>
<path style="fill:#8EBF2D;" d="M274.485,137.489l-11.871,3.564c0,0,3.427,1.766,6.705,0.781
	C272.598,140.85,274.485,137.489,274.485,137.489z"/>
<rect x="262.254" y="126.612" transform="matrix(-0.8806 -0.4739 0.4739 -0.8806 429.8141 385.8977)" style="fill:#A0D625;" width="2.55" height="24.365"/>
<path style="fill:#E69824;" d="M278.527,120.695l-1.853-6.341l-6.313,1.946l-1.998-3.937c-0.756,0.885-1.445,1.884-2.038,2.986
	c-3.204,5.954-2.395,12.614,1.806,14.876c4.203,2.262,10.207-0.731,13.411-6.686c0.593-1.102,1.048-2.227,1.37-3.345
	L278.527,120.695z"/>
<path style="fill:#CF8920;" d="M278.527,120.695l-1.853-6.341c0,0-6.311,11.725-8.542,15.87c4.203,2.262,10.207-0.731,13.411-6.686
	c0.593-1.102,1.048-2.227,1.37-3.345L278.527,120.695z"/>
<path style="fill:#A0D625;" d="M265.039,126.547c-3.341,3.341-8.663,3.436-8.663,3.436s0.096-5.321,3.436-8.663
	c3.341-3.341,8.663-3.436,8.663-3.436S268.38,123.206,265.039,126.547z"/>
<path style="fill:#8EBF2D;" d="M268.475,117.886l-12.099,12.099c0,0,5.321-0.096,8.663-3.436
	C268.38,123.206,268.475,117.886,268.475,117.886z"/>
<rect x="254.241" y="109.827" style="fill:#A0D625;" width="3.519" height="33.636"/>
<path style="fill:#E69824;" d="M262.402,94.827L256,88.332l-6.402,6.496l-5.004-3.479c-0.339,1.569-0.523,3.236-0.523,4.963
	c0,9.334,5.34,16.902,11.928,16.902s11.928-7.568,11.928-16.902c0-1.727-0.184-3.394-0.523-4.963L262.402,94.827z"/>
<path style="fill:#CF8920;" d="M262.402,94.827L256,88.332c0,0,0,18.382,0,24.88c6.588,0,11.928-7.568,11.928-16.902
	c0-1.727-0.184-3.394-0.523-4.963L262.402,94.827z"/>
<path style="fill:#A0D625;" d="M242.68,141.834c3.278,0.984,6.705-0.781,6.705-0.781s-1.888-3.361-5.166-4.345
	c-3.278-0.984-6.705,0.781-6.705,0.781S239.402,140.85,242.68,141.834z"/>
<path style="fill:#8EBF2D;" d="M237.515,137.489l11.871,3.564c0,0-3.427,1.766-6.705,0.781
	C239.402,140.85,237.515,137.489,237.515,137.489z"/>
<rect x="247.198" y="126.595" transform="matrix(0.8806 -0.4739 0.4739 0.8806 -36.0935 134.3212)" style="fill:#A0D625;" width="2.55" height="24.365"/>
<path style="fill:#E69824;" d="M233.473,120.695l1.853-6.341l6.313,1.946l1.998-3.937c0.756,0.885,1.445,1.884,2.038,2.986
	c3.204,5.954,2.395,12.614-1.806,14.876c-4.203,2.262-10.207-0.731-13.411-6.686c-0.593-1.102-1.048-2.227-1.37-3.345
	L233.473,120.695z"/>
<path style="fill:#CF8920;" d="M233.473,120.695l1.853-6.341c0,0,6.311,11.725,8.541,15.87c-4.203,2.262-10.207-0.731-13.411-6.686
	c-0.593-1.102-1.048-2.227-1.37-3.345L233.473,120.695z"/>
<path style="fill:#B90B27;" d="M233.544,140.384v6.794c0.062,42.528,7.354,48.372,21.83,48.372c14.476,0,21.768-5.843,21.83-48.372
	v-6.794H233.544z"/>
<rect x="233.539" y="140.38" style="fill:#DD5323;" width="43.665" height="6.793"/>
<path style="fill:#E58FBE;" d="M398.218,238.363h-2.845c-5.387,0-8.242-2.375-10.536-4.284c-2.071-1.723-3.567-2.968-6.896-2.968
	s-4.825,1.245-6.896,2.968c-2.294,1.909-5.149,4.284-10.536,4.284c-5.385,0-8.238-2.375-10.53-4.285
	c-2.069-1.723-3.564-2.967-6.89-2.967c-3.327,0-4.823,1.245-6.893,2.967c-2.293,1.91-5.147,4.285-10.533,4.285
	c-5.384,0-8.238-2.375-10.529-4.285c-2.069-1.723-3.564-2.967-6.89-2.967c-3.327,0-4.822,1.245-6.892,2.967
	c-2.293,1.91-5.147,4.285-10.533,4.285c-5.385,0-8.239-2.375-10.532-4.285c-2.069-1.723-3.564-2.967-6.891-2.967
	s-4.822,1.245-6.891,2.967c-2.293,1.91-5.146,4.285-10.531,4.285s-8.238-2.375-10.531-4.285c-2.069-1.723-3.564-2.967-6.89-2.967
	c-3.327,0-4.822,1.245-6.892,2.967c-2.293,1.91-5.147,4.285-10.532,4.285s-8.238-2.376-10.531-4.285
	c-2.069-1.723-3.564-2.967-6.89-2.967c-3.325,0-4.819,1.244-6.889,2.967c-2.293,1.909-5.146,4.285-10.529,4.285
	c-5.384,0-8.237-2.376-10.529-4.285c-2.068-1.723-3.563-2.967-6.889-2.967s-4.821,1.244-6.891,2.967
	c-2.293,1.91-5.146,4.285-10.531,4.285c-5.384,0-8.237-2.376-10.529-4.285c-2.068-1.723-3.563-2.967-6.889-2.967
	c-3.324,0-4.817,1.244-6.885,2.967c-2.292,1.909-5.144,4.285-10.527,4.285h-2.845v-43.172h284.436v43.172H398.218z"/>
<rect x="113.786" y="195.198" style="fill:#CE81AB;" width="284.438" height="11.018"/>
<g>
</g>
<g>
</g>
<g>
</g>
<g>
</g>
<g>
</g>
<g>
</g>
<g>
</g>
<g>
</g>
<g>
</g>
<g>
</g>
<g>
</g>
<g>
</g>
<g>
</g>
<g>
</g>
<g>
</g>
</svg>
