<?xml version="1.0" encoding="iso-8859-1"?>
<!-- Generator: Adobe Illustrator 19.0.0, SVG Export Plug-In . SVG Version: 6.00 Build 0)  -->
<svg version="1.1" id="Layer_1" xmlns="http://www.w3.org/2000/svg" xmlns:xlink="http://www.w3.org/1999/xlink" x="0px" y="0px"
	 viewBox="0 0 512 512" style="enable-background:new 0 0 512 512;" xml:space="preserve">
<path style="fill:#FFE65A;" d="M510.894,232.255C498.912,102.005,389.377,0,256,0C114.615,0,0,114.615,0,256
	c0,128.866,95.223,235.477,219.14,253.348L510.894,232.255z"/>
<path style="fill:#DDD532;" d="M109.747,399.954L219.14,509.348C231.178,511.084,243.482,512,256,512c141.384,0,256-114.616,256-256
	c0-8.008-0.386-15.924-1.106-23.745L338.997,60.359L109.747,399.954z"/>
<path style="fill:#BEC130;" d="M182.987,140.375c17.475,24.052,45.389,36.01,73.015,34.219c10.24-25.72,7.493-55.963-9.982-80.016
	s-45.389-36.01-73.015-34.219C162.765,86.079,165.512,116.322,182.987,140.375z"/>
<path style="fill:#63842C;" d="M265.983,94.579c-17.475,24.052-20.222,54.295-9.982,80.016c27.626,1.791,55.54-10.168,73.015-34.219
	c17.475-24.052,20.222-54.295,9.982-80.016C311.373,58.568,283.458,70.526,265.983,94.579z"/>
<path style="fill:#81982D;" d="M256.001,33.392l-22.261,70.601l22.261,70.601c23.402-14.789,38.957-40.871,38.957-70.601
	S279.403,48.181,256.001,33.392z"/>
<path style="fill:#A0AD2F;" d="M217.045,103.993c0,29.731,15.555,55.812,38.957,70.601V33.392
	C232.599,48.181,217.045,74.262,217.045,103.993z"/>
<path style="fill:#B51E39;" d="M434.087,300.522c0-17.415-8.892-32.747-22.378-41.722c7.192-14.516,7.226-32.24-1.481-47.321
	c-8.707-15.082-24.074-23.914-40.241-24.943c-1.03-16.167-9.862-31.534-24.943-40.241s-32.806-8.673-47.321-1.481
	c-8.976-13.486-24.308-22.378-41.722-22.378l-33.391,178.087L256,478.609c17.415,0,32.747-8.892,41.722-22.378
	c14.516,7.193,32.24,7.226,47.321-1.481c15.082-8.707,23.914-24.074,24.943-40.241c16.167-1.03,31.534-9.863,40.241-24.943
	c8.707-15.082,8.673-32.806,1.481-47.321C425.195,333.269,434.087,317.936,434.087,300.522z"/>
<path style="fill:#D92444;" d="M214.278,144.813c-14.516-7.192-32.24-7.226-47.321,1.481c-15.081,8.707-23.914,24.074-24.943,40.241
	c-16.167,1.03-31.534,9.862-40.241,24.943s-8.673,32.806-1.481,47.321c-13.486,8.976-22.378,24.308-22.378,41.722
	s8.892,32.747,22.378,41.722c-7.192,14.516-7.226,32.24,1.481,47.321c8.707,15.082,24.074,23.914,40.241,24.943
	c1.03,16.167,9.862,31.534,24.943,40.241s32.806,8.673,47.321,1.481c8.976,13.486,24.308,22.378,41.722,22.378V122.435
	C238.585,122.435,223.253,131.327,214.278,144.813z"/>
<g>
	<rect x="166.957" y="289.391" style="fill:#B51E39;" width="22.261" height="22.261"/>
	<rect x="133.565" y="256" style="fill:#B51E39;" width="22.261" height="22.261"/>
	<rect x="166.957" y="211.478" style="fill:#B51E39;" width="22.261" height="22.261"/>
</g>
<g>
	<rect x="322.783" y="367.304" style="fill:#D92444;" width="22.261" height="22.261"/>
	<rect x="356.174" y="333.913" style="fill:#D92444;" width="22.261" height="22.261"/>
</g>
<g>
</g>
<g>
</g>
<g>
</g>
<g>
</g>
<g>
</g>
<g>
</g>
<g>
</g>
<g>
</g>
<g>
</g>
<g>
</g>
<g>
</g>
<g>
</g>
<g>
</g>
<g>
</g>
<g>
</g>
</svg>
